<svg width="30" height="30" viewBox="0 0 30 30" fill="none" xmlns="http://www.w3.org/2000/svg">
<path d="M5.71874 5.71874C6.07036 5.36724 6.54719 5.16977 7.04437 5.16977C7.54155 5.16977 8.01838 5.36724 8.36999 5.71874L15 12.3487L21.63 5.71874C21.9836 5.3772 22.4573 5.18821 22.9489 5.19248C23.4405 5.19675 23.9108 5.39394 24.2584 5.74158C24.606 6.08922 24.8032 6.5595 24.8075 7.05112C24.8118 7.54274 24.6228 8.01637 24.2812 8.36999L17.6512 15L24.2812 21.63C24.6228 21.9836 24.8118 22.4573 24.8075 22.9489C24.8032 23.4405 24.606 23.9108 24.2584 24.2584C23.9108 24.606 23.4405 24.8032 22.9489 24.8075C22.4573 24.8118 21.9836 24.6228 21.63 24.2812L15 17.6512L8.36999 24.2812C8.01637 24.6228 7.54274 24.8118 7.05112 24.8075C6.5595 24.8032 6.08922 24.606 5.74158 24.2584C5.39394 23.9108 5.19675 23.4405 5.19248 22.9489C5.18821 22.4573 5.3772 21.9836 5.71874 21.63L12.3487 15L5.71874 8.36999C5.36724 8.01838 5.16977 7.54155 5.16977 7.04437C5.16977 6.54719 5.36724 6.07036 5.71874 5.71874Z" fill="url(#paint0_linear_135_104)"/>
<defs>
<linearGradient id="paint0_linear_135_104" x1="14.9887" y1="5.16977" x2="14.9887" y2="24.8076" gradientUnits="userSpaceOnUse">
<stop stop-color="#4E4FEB"/>
<stop offset="0.536458" stop-color="#068FFF"/>
<stop offset="1" stop-color="#EEEEEE"/>
</linearGradient>
</defs>
</svg>
