<svg width="33" height="33" viewBox="0 0 33 33" fill="none" xmlns="http://www.w3.org/2000/svg">
<g clip-path="url(#clip0_30_11)">
<path d="M27.5 24.0625C28.0297 24.0628 28.5389 24.2668 28.9223 24.6323C29.3056 24.9979 29.5336 25.4969 29.5591 26.0259C29.5845 26.555 29.4055 27.0736 29.059 27.4742C28.7125 27.8748 28.2252 28.1268 27.698 28.1779L27.5 28.1875H5.49999C4.97032 28.1873 4.46105 27.9832 4.07771 27.6177C3.69437 27.2522 3.46635 26.7532 3.4409 26.2241C3.41544 25.6951 3.59451 25.1765 3.94098 24.7759C4.28746 24.3752 4.77479 24.1233 5.30199 24.0722L5.49999 24.0625H27.5ZM27.5 14.4375C28.047 14.4375 28.5716 14.6548 28.9584 15.0416C29.3452 15.4284 29.5625 15.953 29.5625 16.5C29.5625 17.047 29.3452 17.5716 28.9584 17.9584C28.5716 18.3452 28.047 18.5625 27.5 18.5625H5.49999C4.95298 18.5625 4.42838 18.3452 4.04158 17.9584C3.65479 17.5716 3.43749 17.047 3.43749 16.5C3.43749 15.953 3.65479 15.4284 4.04158 15.0416C4.42838 14.6548 4.95298 14.4375 5.49999 14.4375H27.5ZM27.5 4.81253C28.047 4.81253 28.5716 5.02983 28.9584 5.41662C29.3452 5.80342 29.5625 6.32802 29.5625 6.87503C29.5625 7.42204 29.3452 7.94665 28.9584 8.33344C28.5716 8.72023 28.047 8.93753 27.5 8.93753H5.49999C4.95298 8.93753 4.42838 8.72023 4.04158 8.33344C3.65479 7.94665 3.43749 7.42204 3.43749 6.87503C3.43749 6.32802 3.65479 5.80342 4.04158 5.41662C4.42838 5.02983 4.95298 4.81253 5.49999 4.81253H27.5Z" fill="url(#paint0_linear_30_11)"/>
</g>
<defs>
<linearGradient id="paint0_linear_30_11" x1="16.5" y1="4.81253" x2="16.5" y2="28.1875" gradientUnits="userSpaceOnUse">
<stop stop-color="#4E4FEB"/>
<stop offset="0.489583" stop-color="#068FFF"/>
<stop offset="1" stop-color="#EEEEEE"/>
</linearGradient>
<clipPath id="clip0_30_11">
<rect width="33" height="33" fill="white"/>
</clipPath>
</defs>
</svg>
